<svg xmlns="http://www.w3.org/2000/svg" version="1.1" xmlns:xlink="http://www.w3.org/1999/xlink" xmlns:svgjs="http://svgjs.dev/svgjs" width="2000" height="1247" viewBox="0 0 2000 1247"><g transform="matrix(1,0,0,1,-1.2121212121212466,0.504858299595071)"><svg viewBox="0 0 396 247" data-background-color="#21232b" preserveAspectRatio="xMidYMid meet" height="1247" width="2000" xmlns="http://www.w3.org/2000/svg" xmlns:xlink="http://www.w3.org/1999/xlink"><g id="tight-bounds" transform="matrix(1,0,0,1,0.2400000000000091,-0.09999999999999432)"><svg viewBox="0 0 395.52 247.2" height="247.2" width="395.52"><g><svg></svg></g><g><svg viewBox="0 0 395.52 247.2" height="247.2" width="395.52"><g transform="matrix(1,0,0,1,75.54432,54.73849880102979)"><svg viewBox="0 0 244.43135999999998 137.7230023979404" height="137.7230023979404" width="244.43135999999998"><g><svg viewBox="0 0 244.43135999999998 137.7230023979404" height="137.7230023979404" width="244.43135999999998"><g><svg viewBox="0 0 244.43135999999998 137.7230023979404" height="137.7230023979404" width="244.43135999999998"><g id="textblocktransform"><svg viewBox="0 0 244.43135999999998 137.7230023979404" height="137.7230023979404" width="244.43135999999998" id="textblock"><g><svg viewBox="0 0 244.43135999999998 137.7230023979404" height="137.7230023979404" width="244.43135999999998"><g transform="matrix(1,0,0,1,0,0)"><svg width="244.43135999999998" viewBox="1 -35.94 66.38 37.4" height="137.7230023979404" data-palette-color="#f4f3f0"><path d="M22.92-34.62L34.45-35.01 32.69-1.9 19.9-0.73 13.06-18.46 11.99-0.39 1-0.39 1.88-35.01 14.09-35.6 22.53-18.02 22.92-34.62ZM55.08-35.94L67.38-34.96 55.61-18.7 65.52-1.42 54.2 0.59 46.77-9.96 46.38 1.07 36.23 1.46 37.01-35.94 48.39-35.3 47.51-24.27 55.08-35.94Z" opacity="1" transform="matrix(1,0,0,1,0,0)" fill="#ffffff" class="wordmark-text-0" data-fill-palette-color="primary" id="text-0"></path></svg></g></svg></g></svg></g></svg></g></svg></g></svg></g><g><path d="M0 123.6c0-68.262 55.338-123.6 123.6-123.6 35.277 0 67.101 14.778 89.621 38.482l-8.779 0c-21.051-20-49.513-32.272-80.842-32.272-64.833 0-117.39 52.557-117.39 117.39 0 64.833 52.557 117.39 117.39 117.39 31.329 0 59.791-12.272 80.842-32.272l8.779 0c-22.52 23.703-54.345 38.482-89.621 38.482-68.262 0-123.6-55.338-123.6-123.6z" fill="#ffffff" stroke="transparent" data-fill-palette-color="tertiary"></path></g></svg></g><defs></defs></svg><rect width="395.52" height="247.2" fill="none" stroke="none" visibility="hidden"></rect></g></svg></g></svg>